<svg xmlns="http://www.w3.org/2000/svg" id="Layer_1" x="0" y="0" viewBox="0 0 398.3 100.1" xml:space="preserve"><style>.st0{fill:#253b80}.st1{fill:#179bd7}</style><path class="st0" d="M148.9 21.8h-22c-1.5 0-2.8 1.1-3 2.6L115 80.9c-.2 1 .5 1.9 1.5 2.1h10.8c1.5 0 2.8-1.1 3-2.6l2.4-15.2c.2-1.5 1.5-2.6 3-2.6h7c14.5 0 22.9-7 25.1-20.9 1-6.1 0-10.9-2.8-14.2-3.1-3.8-8.7-5.7-16.1-5.7zm2.6 20.6c-1.2 7.9-7.2 7.9-13.1 7.9h-3.3l2.3-14.8c.1-.9.9-1.6 1.8-1.6h1.5c4 0 7.7 0 9.7 2.3 1.2 1.4 1.5 3.4 1.1 6.2zm63.3-.3h-10.6c-.9 0-1.7.7-1.8 1.6l-.5 3-.7-1.1c-2.3-3.3-7.4-4.4-12.5-4.4-11.7 0-21.6 8.8-23.6 21.2-1 6.2.4 12.1 3.9 16.2 3.2 3.8 7.8 5.4 13.3 5.4 9.4 0 14.6-6 14.6-6l-.5 2.9c-.2 1 .5 1.9 1.5 2.1h9.8c1.5 0 2.8-1.1 3-2.6l5.7-36.1c.2-1-.5-1.9-1.5-2.1.1-.1 0-.1-.1-.1zm-14.7 20.6c-1 6-5.8 10.1-11.9 10.1-3.1 0-5.5-1-7.1-2.8-1.6-1.8-2.2-4.5-1.7-7.4 1-6 5.8-10.2 11.8-10.2 3 0 5.4 1 7 2.9 1.7 1.8 2.4 4.5 1.9 7.4zM271 42.1h-10.6c-1 0-2 .5-2.5 1.3L243.3 65l-6.2-20.7c-.4-1.3-1.6-2.2-2.9-2.2h-10.4c-1 0-1.8.8-1.8 1.8 0 .2 0 .4.1.6l11.7 34.3-11 15.5c-.6.8-.4 2 .4 2.6.3.2.7.3 1.1.3h10.6c1 0 1.9-.5 2.5-1.3L272.5 45c.6-.8.4-2-.5-2.6-.2-.1-.6-.3-1-.3z"/><path class="st1" d="M306.1 21.8h-22c-1.5 0-2.8 1.1-3 2.6l-8.9 56.5c-.2 1 .5 1.9 1.5 2.1H285.3c1.1 0 2-.8 2.1-1.8l2.5-16c.2-1.5 1.5-2.6 3-2.6h7c14.5 0 22.9-7 25.1-20.9 1-6.1 0-10.9-2.8-14.2-3.1-3.8-8.7-5.7-16.1-5.7zm2.6 20.6c-1.2 7.9-7.2 7.9-13.1 7.9h-3.3l2.3-14.8c.1-.9.9-1.6 1.8-1.6h1.5c4 0 7.7 0 9.7 2.3 1.2 1.4 1.5 3.4 1.1 6.2zm63.3-.3h-10.5c-.9 0-1.7.7-1.8 1.6l-.5 3-.7-1.1c-2.3-3.3-7.4-4.4-12.5-4.4-11.7 0-21.6 8.8-23.6 21.2-1 6.2.4 12.1 3.9 16.2 3.2 3.8 7.8 5.4 13.3 5.4 9.4 0 14.6-6 14.6-6l-.5 2.9c-.2 1 .5 1.9 1.5 2.1h9.8c1.5 0 2.8-1.1 3-2.6l5.7-36.1c.2-1-.5-1.9-1.5-2.1 0-.1-.1-.1-.2-.1zm-14.7 20.6c-1 6-5.8 10.1-11.9 10.1-3.1 0-5.5-1-7.1-2.8-1.6-1.8-2.1-4.5-1.7-7.4 1-6 5.8-10.2 11.8-10.2 3 0 5.4 1 7 2.9 1.7 1.8 2.4 4.5 1.9 7.4zm27.2-39.4l-9 57.6c-.2 1 .5 1.9 1.5 2.1h9.4c1.5 0 2.8-1.1 3-2.6l8.9-56.5c.2-1-.5-1.9-1.5-2.1h-10.5c-.9 0-1.7.6-1.8 1.5z"/><path class="st0" d="M23.4 94l1.7-10.7-3.8-.1H3.4l12.5-79c.1-.5.5-.9 1-.9h30.2c10 0 17 2.1 20.6 6.2 1.7 1.9 2.8 4 3.3 6.2.5 2.3.6 5.1 0 8.5V26.6l1.7 1c1.3.7 2.5 1.5 3.4 2.6 1.5 1.7 2.4 3.8 2.8 6.2.4 2.6.3 5.6-.4 9.1-.8 4-2 7.4-3.7 10.3-1.5 2.5-3.5 4.7-5.9 6.4-2.2 1.6-4.9 2.8-7.9 3.6-2.9.8-6.2 1.1-9.9 1.1h-2.4c-1.7 0-3.3.6-4.6 1.7-1.3 1.1-2.1 2.6-2.4 4.3l-.2 1-3 18.9-.1.7c0 .2-.1.3-.2.4-.1.1-.2.1-.3.1H23.4z"/><path class="st1" d="M74.3 24.7l-.3 1.8C70 47 56.3 54 38.9 54H30c-2.1 0-3.9 1.5-4.3 3.6l-4.5 28.8-1.2 8.2c-.2 1.2.6 2.4 1.9 2.6H38c1.9 0 3.4-1.4 3.7-3.2l.2-.8 3-18.8.2-1c.3-1.8 1.9-3.2 3.7-3.2h2.4c15.2 0 27.2-6.2 30.7-24.1 1.5-7.5.7-13.7-3.2-18.1-1.3-1.3-2.8-2.5-4.4-3.3z"/><path d="M70.1 23c-1.3-.4-2.6-.7-3.9-.9-2.6-.4-5.2-.6-7.8-.6H34.7c-1.9 0-3.4 1.4-3.7 3.2l-5 31.9-.1.9c.3-2.1 2.1-3.6 4.3-3.6h8.9c17.4 0 31.1-7.1 35-27.5l.3-1.8c-1.1-.6-2.1-1-3.3-1.4-.4 0-.7-.1-1-.2z" fill="#222d65"/><path class="st0" d="M31 24.8c.3-1.8 1.9-3.2 3.7-3.2h23.7c2.8 0 5.4.2 7.8.6 1.6.3 3.2.6 4.8 1.1 1.2.4 2.3.9 3.3 1.4 1.2-7.6 0-12.7-4.1-17.4C65.7 2.2 57.5 0 47.1 0H16.9c-2.1 0-3.9 1.5-4.3 3.7L0 83.5c-.2 1.4.7 2.7 2.2 3H21.3L26 56.8c-.1-.1 5-32 5-32z"/></svg>